<?xml version="1.0" standalone="no"?>
<!DOCTYPE svg PUBLIC "-//W3C//DTD SVG 1.1//EN" "http://www.w3.org/Graphics/SVG/1.1/DTD/svg11.dtd" >
<svg xmlns="http://www.w3.org/2000/svg">
<metadata>
This is a custom SVG webfont generated by Font Squirrel.
Copyright   : Copyright  1990 1992 Adobe Systems Incorporated  All Rights Reserved  1981 2002 Heidelberger Druckmaschinen AG All rights reserved
Designer    : Linotype Staff
Foundry URL : httpwwwadobecomtype
</metadata>
<defs>
<font id="DIN1451StdEngschrift" horiz-adv-x="772" >
<font-face units-per-em="2048" ascent="1458" descent="-590" />
<missing-glyph horiz-adv-x="387" />
<glyph unicode=" "  horiz-adv-x="387" />
<glyph unicode="&#x09;" horiz-adv-x="387" />
<glyph unicode="&#xa0;" horiz-adv-x="387" />
<glyph unicode="!" horiz-adv-x="499" d="M117 1487h268l-82 -1118h-104zM143 0v213h213v-213h-213z" />
<glyph unicode="&#x22;" horiz-adv-x="579" d="M70 1120v367h166v-367h-166zM344 1120v367h168v-367h-168z" />
<glyph unicode="#" horiz-adv-x="776" d="M12 449v124h123l47 340h-104v125h121l59 449h143l-61 -449h176l62 449h141l-62 -449h107v-125h-123l-45 -340h104v-124h-120l-62 -449h-141l59 449h-174l-61 -449h-142l60 449h-107zM279 573h174l47 340h-176z" />
<glyph unicode="$" horiz-adv-x="776" d="M23 336v84h213v-76q0 -121 100 -143v481l-70 29q-133 53 -183 143t-50 238q0 166 78.5 277.5t224.5 129.5v158h106v-158q139 -16 225.5 -115.5t86.5 -220.5v-104h-213v49q0 147 -99 178v-420l88 -35q133 -51 178.5 -141t45.5 -266q0 -406 -312 -436v-176h-106v176 q-135 16 -224 113.5t-89 234.5zM246 1094q0 -80 16.5 -117t73.5 -64v373q-90 -32 -90 -192zM442 201q63 14 81 65t18 156q0 106 -17.5 146t-81.5 67v-434z" />
<glyph unicode="%" horiz-adv-x="735" d="M18 1192v137q0 78 48.5 124t130.5 46t130 -46t48 -124v-137q0 -70 -48 -114t-130 -44t-130.5 44t-48.5 114zM43 0l510 1487h139l-510 -1487h-139zM143 1214q0 -23 16.5 -39t37 -16t36 16.5t15.5 38.5v107q0 20 -15.5 36.5t-36 16.5t-37 -16.5t-16.5 -36.5v-107zM360 145 v138q0 78 48.5 124t130.5 46t130 -46.5t48 -123.5v-138q0 -70 -48 -113.5t-130 -43.5t-130.5 43.5t-48.5 113.5zM487 168q0 -23 15.5 -39t36 -16t37 16t16.5 39v106q0 20 -16.5 37t-37 17t-36 -16.5t-15.5 -37.5v-106z" />
<glyph unicode="&#x26;" horiz-adv-x="1003" d="M76 332q0 203 205 387q-131 184 -131 342q0 125 76.5 207t213.5 82q131 0 207 -78t76 -193q0 -178 -217 -372l79 -130q73 -120 117 -182l115 156l131 -92l-157 -205l159 -254h-213l-71 113q-125 -125 -283 -125q-131 0 -219 96t-88 248zM264 342q0 -76 44 -132t114 -56 q88 0 160 90l-205 325q-113 -116 -113 -227zM338 1057q0 -82 82 -215q127 123 127 233q0 43 -27.5 75t-74 32t-77 -37t-30.5 -88z" />
<glyph unicode="'" horiz-adv-x="387" d="M111 1120v367h168v-367h-168z" />
<glyph unicode="(" horiz-adv-x="462" d="M104 639q0 217 67 446.5t181 401.5h72q-106 -373 -107 -905q0 -403 107 -791h-72q-121 174 -184.5 404.5t-63.5 443.5z" />
<glyph unicode=")" horiz-adv-x="462" d="M39 -209q106 375 106 907q0 403 -106 789h72q121 -172 184 -403.5t63 -444.5q0 -217 -66.5 -445.5t-180.5 -402.5h-72z" />
<glyph unicode="*" d="M66 1030l208 115l-208 117l57 108l205 -125l-9 242h134l-9 -242l205 125l60 -108l-209 -117l209 -115l-60 -110l-205 124l9 -241h-134l9 241l-205 -124z" />
<glyph unicode="+" horiz-adv-x="1253" d="M98 444v168h445v445h168v-445h444v-168h-444v-444h-168v444h-445z" />
<glyph unicode="," horiz-adv-x="387" d="M88 -154v367h213v-213z" />
<glyph unicode="-" horiz-adv-x="811" d="M92 473v213h629v-213h-629z" />
<glyph unicode="." horiz-adv-x="387" d="M88 0v213h213v-213h-213z" />
<glyph unicode="/" horiz-adv-x="462" d="M10 -12l277 1511h166l-275 -1511h-168z" />
<glyph unicode="0" horiz-adv-x="776" d="M72 307v873q0 145 92 232t224 87t225.5 -87t93.5 -232v-873q0 -143 -93.5 -231t-225.5 -88t-224 88t-92 231zM285 307q0 -45 28.5 -75.5t74.5 -30.5t76 30.5t30 75.5v873q0 47 -30 76.5t-76 29.5t-74.5 -29.5t-28.5 -76.5v-873z" />
<glyph unicode="1" horiz-adv-x="776" d="M111 1106v225l213 156h213v-1487h-213v1262z" />
<glyph unicode="2" horiz-adv-x="776" d="M72 0v201l383 725q39 74 39 196q0 37 -2.5 57.5t-10.5 50.5t-31.5 43t-60.5 13q-49 0 -76.5 -27.5t-27.5 -78.5v-121h-213v117q0 135 92 229t227 94q156 0 236 -106.5t80 -266.5q0 -113 -11.5 -165t-60.5 -144l-313 -604h385v-213h-635z" />
<glyph unicode="3" horiz-adv-x="776" d="M72 305v121h213v-111q0 -49 27.5 -81.5t75.5 -32.5t77 32.5t29 85.5v213q0 86 -33 113t-137 27v188q100 0 135 25.5t35 103.5v193q0 47 -29 75.5t-76 28.5q-53 0 -78.5 -31.5t-25.5 -72.5v-121h-213v123q0 133 95 224t226 91q145 0 232 -104q45 -53 63.5 -115.5 t18.5 -200.5q0 -154 -21.5 -205t-112.5 -106q94 -57 114 -113.5t20 -226.5q0 -141 -11.5 -197.5t-46.5 -107.5q-92 -135 -262 -135q-121 0 -218 77.5t-97 239.5z" />
<glyph unicode="4" horiz-adv-x="776" d="M18 221v201l308 1065h225l-320 -1065h211v424h213v-424h103v-201h-103v-221h-213v221h-424z" />
<glyph unicode="5" horiz-adv-x="776" d="M72 307v64h213v-56q0 -53 29.5 -83.5t78.5 -30.5q45 0 73 28.5t28 81.5v348q0 45 -29 76t-72 31q-35 0 -59.5 -17.5t-30.5 -28.5l-18 -34h-189v801h611v-201h-422v-401q72 70 176 69q111 0 178.5 -68.5t67.5 -193.5v-385q0 -143 -93.5 -231t-225.5 -88t-224 88t-92 231z " />
<glyph unicode="6" horiz-adv-x="776" d="M72 434q0 129 8 184.5t31 120.5l280 748h238l-242 -625l4 -4q27 18 90 19q117 0 178 -97q31 -43 39.5 -106.5t8.5 -239.5q0 -143 -8.5 -197.5t-41.5 -105.5q-86 -143 -268 -143q-178 0 -268 143q-31 51 -40 105.5t-9 197.5zM285 307q0 -45 30.5 -75.5t72.5 -30.5t74 30.5 t32 75.5v277q0 45 -32 75.5t-74 30.5t-72.5 -30.5t-30.5 -75.5v-277z" />
<glyph unicode="7" horiz-adv-x="776" d="M72 1116v371h635v-213l-363 -1274h-225l375 1286h-236v-170h-186z" />
<glyph unicode="8" horiz-adv-x="776" d="M72 416q0 182 16 246.5t90 117.5q-74 59 -90 116.5t-16 203.5q0 117 16 173t59 111q88 115 241 115t241 -115q43 -55 60.5 -111t17.5 -173q0 -145 -17.5 -202.5t-89.5 -117.5q72 -53 89.5 -117.5t17.5 -246.5q0 -131 -12.5 -188.5t-47.5 -108.5q-86 -131 -259 -131 t-259 131q-33 51 -45 108.5t-12 188.5zM285 305q0 -43 30.5 -73.5t72.5 -30.5t74 30.5t32 73.5v293q0 43 -32 73.5t-74 30.5t-72.5 -30.5t-30.5 -73.5v-293zM285 965q0 -43 30.5 -74t72.5 -31t74 31t32 74v217q0 45 -32 74.5t-74 29.5t-72.5 -29.5t-30.5 -74.5v-217z" />
<glyph unicode="9" horiz-adv-x="776" d="M72 1053q0 143 8 198.5t39 104.5q86 143 270 143q176 0 266 -143q33 -49 42.5 -104.5t9.5 -198.5q0 -129 -8.5 -184.5t-32.5 -120.5l-279 -748h-240l244 625l-4 4q-29 -18 -90 -19q-117 0 -180 97q-29 43 -37 106.5t-8 239.5zM285 905q0 -47 30.5 -76.5t72.5 -29.5 t74 29.5t32 76.5v275q0 47 -32 76.5t-74 29.5t-72.5 -29.5t-30.5 -76.5v-275z" />
<glyph unicode=":" horiz-adv-x="387" d="M88 0v213h213v-213h-213zM88 475v213h213v-213h-213z" />
<glyph unicode=";" horiz-adv-x="387" d="M88 -154v367h213v-213zM88 475v213h213v-213h-213z" />
<glyph unicode="&#x3c;" horiz-adv-x="1253" d="M98 465v127l1057 481v-166l-829 -379l829 -378v-166z" />
<glyph unicode="=" horiz-adv-x="1253" d="M98 236v167h1057v-167h-1057zM98 653v168h1057v-168h-1057z" />
<glyph unicode="&#x3e;" horiz-adv-x="1253" d="M98 -16v166l830 378l-830 379v166l1057 -481v-127z" />
<glyph unicode="?" d="M68 1059v123q0 133 93 225t228 92q156 0 246 -119q41 -55 56.5 -106t15.5 -148q0 -182 -35 -237l-144 -248q-35 -61 -34 -106v-166h-213v192q0 82 51 170l133 217q29 47 29 121v111q0 45 -31 75.5t-74 30.5t-75.5 -28.5t-32.5 -77.5v-121h-213zM281 0v213h213v-213h-213z " />
<glyph unicode="@" horiz-adv-x="1671" d="M113 748q0 311 233.5 531t556.5 220q301 0 512 -177t211 -448q0 -123 -49 -236.5t-123 -186t-154.5 -116.5t-150.5 -44q-145 0 -164 131h-4q-39 -41 -64.5 -64.5t-77 -45t-112.5 -21.5q-131 0 -215 92t-84 225q0 139 59.5 270.5t174 216.5t256.5 85q80 0 145 -40t94 -122 h4l43 127h131l-182 -576q-20 -61 -20 -92q0 -61 47 -61q98 0 191 148.5t93 299.5q0 215 -165.5 356.5t-393.5 141.5q-260 0 -445.5 -188.5t-185.5 -436.5q0 -256 185.5 -434t455.5 -178q147 0 290 63.5t218 155.5h160q-100 -166 -284.5 -261t-399.5 -95q-332 0 -559 217 t-227 543zM596 623q0 -86 47 -134.5t125 -48.5q113 0 208 141.5t95 274.5q0 78 -41 126t-112 48q-129 0 -225.5 -133t-96.5 -274z" />
<glyph unicode="A" horiz-adv-x="849" d="M4 0l332 1487h178l332 -1487h-213l-64 319h-288l-64 -319h-213zM317 520h213l-104 539h-4z" />
<glyph unicode="B" horiz-adv-x="888" d="M100 0v1487h312q195 0 287 -107.5t92 -267.5v-55q0 -111 -35 -169.5t-113 -107.5q147 -70 148 -291v-83q0 -406 -400 -406h-291zM313 213h93q117 0 150.5 60.5t33.5 189.5q0 123 -37 175t-145 52h-95v-477zM313 877h97q102 0 141 50t39 158q0 102 -43 151.5t-146 49.5 h-88v-409z" />
<glyph unicode="C" horiz-adv-x="849" d="M88 338v819q0 150 97.5 246t248.5 96q150 0 246 -100.5t96 -253.5v-84h-213v72q0 63 -35.5 108t-95.5 45q-76 0 -103.5 -45t-27.5 -127v-762q0 -152 129 -151q53 0 93 35.5t40 113.5v74h213v-92q0 -139 -98 -241.5t-240 -102.5q-143 0 -246.5 82t-103.5 268z" />
<glyph unicode="D" horiz-adv-x="888" d="M100 0v1487h316q180 0 277.5 -101.5t97.5 -281.5v-696q0 -205 -101.5 -306.5t-292.5 -101.5h-297zM313 201h99q88 0 127 45t39 141v717q0 90 -38 136t-128 46h-99v-1085z" />
<glyph unicode="E" d="M100 0v1487h635v-201h-422v-436h369v-201h-369v-436h422v-213h-635z" />
<glyph unicode="F" d="M100 0v1487h635v-201h-422v-450h369v-201h-369v-635h-213z" />
<glyph unicode="G" horiz-adv-x="888" d="M88 350v787q0 172 107.5 267t250 95t250 -95t107.5 -267v-76h-213v76q0 74 -41 111.5t-103.5 37.5t-103.5 -38t-41 -111v-787q0 -72 41 -110.5t103.5 -38.5t103.5 39t41 110v281h-170v188h383v-469q0 -170 -107.5 -266t-250 -96t-250 96t-107.5 266z" />
<glyph unicode="H" horiz-adv-x="888" d="M100 0v1487h213v-637h265v637h213v-1487h-213v662h-265v-662h-213z" />
<glyph unicode="I" horiz-adv-x="425" d="M106 0v1487h213v-1487h-213z" />
<glyph unicode="J" horiz-adv-x="694" d="M-45 121l166 133q55 -53 117 -53q55 0 100 41t45 139v1106h213v-1137q0 -152 -99.5 -257t-265.5 -105q-157 0 -276 133z" />
<glyph unicode="K" horiz-adv-x="888" d="M100 0v1487h213v-678h4l312 678h213l-291 -594l346 -893h-227l-242 659l-115 -215v-444h-213z" />
<glyph unicode="L" d="M100 0v1487h213v-1274h422v-213h-635z" />
<glyph unicode="M" horiz-adv-x="1161" d="M100 0v1487h205l275 -787h4l270 787h207v-1487h-213v905h-4l-211 -639h-107l-209 639h-4v-905h-213z" />
<glyph unicode="N" horiz-adv-x="925" d="M92 0v1487h205l321 -895h5v895h213v-1487h-201l-326 895h-4v-895h-213z" />
<glyph unicode="O" horiz-adv-x="888" d="M88 350v787q0 172 107.5 267t250 95t250 -95t107.5 -267v-787q0 -170 -107.5 -266t-250 -96t-250 96t-107.5 266zM301 350q0 -72 41 -110.5t103.5 -38.5t103.5 39t41 110v787q0 74 -41 111.5t-103.5 37.5t-103.5 -38t-41 -111v-787z" />
<glyph unicode="P" horiz-adv-x="849" d="M100 0v1487h320q178 0 276 -105q53 -55 75 -134t22 -214q0 -201 -62 -299q-94 -154 -309 -153h-109v-582h-213zM313 780h103q49 0 84 14.5t52 32t27.5 55.5t11.5 65.5t1 84.5q0 53 -1 81t-10.5 68t-25.5 58t-49 32.5t-82 14.5h-111v-506z" />
<glyph unicode="Q" horiz-adv-x="888" d="M88 350v787q0 172 107.5 267t250 95t250 -95t107.5 -267v-787q0 -86 -33 -151l133 -107l-108 -129l-127 103q-96 -78 -224 -78q-141 0 -248.5 96t-107.5 266zM301 350q0 -72 41 -110.5t102 -38.5q29 0 48 8l-97 78l109 129l86 -70v4v787q0 74 -41 111.5t-103.5 37.5 t-103.5 -38t-41 -111v-787z" />
<glyph unicode="R" horiz-adv-x="888" d="M100 0v1487h342q377 0 377 -436q0 -270 -184 -371l229 -680h-225l-199 635h-127v-635h-213zM313 823h121q104 0 138 54.5t34 177.5t-35.5 177t-146.5 54h-111v-463z" />
<glyph unicode="S" horiz-adv-x="847" d="M59 340v80h213v-68q0 -63 37 -107t113 -44q98 0 127 51t29 170q0 117 -23 155.5t-102 69.5l-152 64q-131 53 -181 143t-50 238q0 178 94 292.5t270 114.5q154 0 255.5 -103.5t101.5 -232.5v-104h-213v49q0 78 -37 128t-115 50q-143 0 -143 -192q0 -90 20.5 -128t99.5 -69 l162 -66q135 -51 180.5 -141t45.5 -266q0 -436 -369 -436q-154 0 -258.5 101t-104.5 251z" />
<glyph unicode="T" horiz-adv-x="692" d="M-6 1286v201h706v-201h-247v-1286h-213v1286h-246z" />
<glyph unicode="U" horiz-adv-x="888" d="M100 334v1153h213v-1133q0 -74 37 -113.5t95.5 -39.5t95.5 40t37 113v1133h213v-1153q0 -145 -100.5 -245.5t-245 -100.5t-245 100.5t-100.5 245.5z" />
<glyph unicode="V" horiz-adv-x="849" d="M27 1487h225l170 -1038h4l172 1038h225l-305 -1487h-188z" />
<glyph unicode="W" horiz-adv-x="1236" d="M33 1487h225l107 -944h6l166 944h163l172 -967h5l102 967h227l-223 -1487h-201l-161 965h-5l-161 -965h-201z" />
<glyph unicode="X" horiz-adv-x="811" d="M-4 0l301 778l-279 709h226l162 -440l161 440h228l-285 -709l307 -778h-225l-186 502l-185 -502h-225z" />
<glyph unicode="Y" horiz-adv-x="808" d="M6 1487h225l172 -590h5l172 590h225l-293 -858v-629h-213v629z" />
<glyph unicode="Z" horiz-adv-x="694" d="M31 0v188l401 1098h-379v201h611v-168l-410 -1118h410v-201h-633z" />
<glyph unicode="[" horiz-adv-x="462" d="M121 -209v1696h325v-125h-137v-1446h137v-125h-325z" />
<glyph unicode="\" horiz-adv-x="462" d="M10 1499h168l275 -1511h-166z" />
<glyph unicode="]" horiz-adv-x="462" d="M16 -84h138v1446h-138v125h326v-1696h-326v125z" />
<glyph unicode="^" horiz-adv-x="1253" d="M104 592l453 895h139l453 -895h-168l-354 706l-355 -706h-168z" />
<glyph unicode="_" horiz-adv-x="1044" d="M0 -156h1044v-106h-1044v106z" />
<glyph unicode="`" horiz-adv-x="387" d="M-84 1493h225l189 -295h-137z" />
<glyph unicode="a" d="M53 270q0 188 72 273.5t264 85.5q16 0 50 -3t53 -3v110q0 125 -107 125q-45 0 -79 -27.5t-42 -78.5h-207q10 145 95 229q90 90 233 90q139 0 229.5 -86t90.5 -248v-737h-213v109h-5q-49 -66 -92 -93.5t-112 -27.5q-94 0 -162 62t-68 220zM266 311q0 -63 29 -99t82 -36 t84 35t31 100v144q-37 6 -60 6q-166 0 -166 -150z" />
<glyph unicode="b" horiz-adv-x="811" d="M88 0v1487h213v-524h4q74 109 197 108q129 0 190 -96q33 -53 33 -256v-404q0 -164 -35 -227q-55 -100 -186 -100q-51 0 -90 16t-58.5 34.5t-54.5 57.5v-96h-213zM301 332q0 -57 28.5 -94t78.5 -37q104 0 104 143v389q0 125 -104 125q-47 0 -77 -31.5t-30 -83.5v-411z" />
<glyph unicode="c" d="M100 354v351q0 141 39 215q84 152 279 151q143 0 230 -94t87 -244h-213q0 125 -104.5 125t-104.5 -121v-432q0 -51 29 -77.5t76 -26.5q94 0 104 106h213q0 -135 -86 -225q-90 -94 -231 -94q-195 0 -279 151q-39 74 -39 215z" />
<glyph unicode="d" horiz-adv-x="811" d="M88 315v404q0 203 33 256q61 96 190 96q123 0 197 -108h4v524h213v-1487h-213v96q-35 -39 -54.5 -57.5t-59.5 -34.5t-89 -16q-131 0 -186 100q-35 63 -35 227zM301 344q0 -143 105 -143q47 0 76.5 36.5t29.5 94.5v411q0 51 -30.5 83t-75.5 32q-104 0 -105 -125v-389z" />
<glyph unicode="e" d="M70 354v351q0 141 39 215q84 152 278 151q143 0 230.5 -94t87.5 -236v-292h-422v-144q0 -51 27.5 -77.5t76.5 -26.5q94 0 105 106h213q0 -135 -87 -225q-90 -94 -231 -94q-195 0 -278 151q-39 74 -39 215zM283 616h209v121q0 121 -104.5 121t-104.5 -121v-121z" />
<glyph unicode="f" horiz-adv-x="462" d="M10 893v166h105v145q0 143 79.5 213t194.5 70h98v-201h-96q-63 0 -63 -72v-155h159v-166h-159v-893h-213v893h-105z" />
<glyph unicode="g" horiz-adv-x="811" d="M88 -123h213q2 -43 30.5 -73.5t82.5 -30.5q98 0 98 114v209h-4q-74 -109 -199 -108q-131 0 -186 100q-35 63 -35 227v404q0 203 33 256q61 96 190 96q49 0 88 -16.5t58.5 -33.5t54.5 -58v96h213v-1188q0 -123 -82 -217t-237 -94q-115 0 -207.5 74.5t-110.5 242.5z M301 326q0 -125 105 -125q45 0 75.5 32.5t30.5 81.5v412q0 59 -29.5 95t-76.5 36q-104 0 -105 -143v-389z" />
<glyph unicode="h" horiz-adv-x="811" d="M88 0v1487h213v-531h4q76 115 201 115q90 0 154.5 -63.5t64.5 -194.5v-813h-213v733q0 59 -27.5 92t-76.5 33q-106 0 -107 -145v-713h-213z" />
<glyph unicode="i" horiz-adv-x="387" d="M88 0v1059h213v-1059h-213zM88 1274v213h213v-213h-213z" />
<glyph unicode="j" horiz-adv-x="387" d="M-45 -227q76 0 104.5 40t28.5 154v1092h213v-1172q0 -154 -95 -234.5t-251 -80.5v201zM88 1274v213h213v-213h-213z" />
<glyph unicode="k" horiz-adv-x="811" d="M88 0v1487h213v-889h4l256 461h213l-252 -430l305 -629h-231l-193 457l-102 -160v-297h-213z" />
<glyph unicode="l" horiz-adv-x="387" d="M76 285v1202h213v-1188q0 -59 21.5 -81.5t82.5 -29.5v-200q-162 0 -239.5 61.5t-77.5 235.5z" />
<glyph unicode="m" horiz-adv-x="1234" d="M88 0v1059h213v-103h4q76 115 201 115q113 0 190 -106q45 53 94.5 79.5t127.5 26.5q92 0 161.5 -63.5t69.5 -194.5v-813h-213v733q0 59 -27.5 92t-77.5 33q-106 0 -106 -145v-713h-213v733q0 59 -27.5 92t-76.5 33q-106 0 -107 -145v-713h-213z" />
<glyph unicode="n" horiz-adv-x="811" d="M88 0v1059h213v-103h4q76 115 201 115q90 0 154.5 -63.5t64.5 -194.5v-813h-213v733q0 59 -27.5 92t-76.5 33q-106 0 -107 -145v-713h-213z" />
<glyph unicode="o" d="M70 354v351q0 141 39 215q84 152 278.5 151.5t276.5 -151.5q41 -74 41 -215v-351q0 -141 -41 -215q-82 -152 -276.5 -151.5t-278.5 151.5q-39 74 -39 215zM283 322q0 -121 104.5 -121t104.5 121v415q0 121 -104.5 121t-104.5 -121v-415z" />
<glyph unicode="p" horiz-adv-x="811" d="M88 -428v1487h213v-96q35 41 54.5 58t58.5 33.5t90 16.5q131 0 186 -100q35 -63 35 -228v-403q0 -203 -33 -256q-61 -96 -190 -96q-123 0 -197 108h-4v-524h-213zM301 315q0 -49 29.5 -81.5t77.5 -32.5q104 0 104 125v389q0 143 -104 143q-49 0 -78 -36t-29 -95v-412z " />
<glyph unicode="q" horiz-adv-x="811" d="M88 340v403q0 164 35 228q55 100 186 100q49 0 89 -16.5t59.5 -33.5t54.5 -58v96h213v-1487h-213v524h-4q-74 -109 -197 -108q-129 0 -190 96q-33 53 -33 256zM301 326q0 -125 105 -125q45 0 75.5 32.5t30.5 81.5v412q0 59 -29.5 95t-76.5 36q-104 0 -105 -143v-389z" />
<glyph unicode="r" horiz-adv-x="579" d="M88 0v1059h213v-113q76 66 136.5 95.5t146.5 29.5v-225q-33 12 -66 12q-82 0 -149.5 -56.5t-67.5 -172.5v-629h-213z" />
<glyph unicode="s" horiz-adv-x="735" d="M49 307h201q18 -119 115 -119q49 0 84.5 32t35.5 83q0 88 -106 129l-103 39q-215 80 -215 291q0 135 91.5 222t221.5 87t214 -88t86 -221h-199q-2 51 -33.5 79.5t-76.5 28.5q-47 0 -75 -30.5t-28 -75.5q0 -72 88 -109l127 -49q209 -80 209 -299q0 -133 -91 -226t-226 -93 q-133 0 -222.5 83.5t-97.5 235.5z" />
<glyph unicode="t" horiz-adv-x="425" d="M-18 893v166h106v321h213v-321h131v-166h-131v-588q0 -70 26.5 -87t104.5 -17v-201h-88q-131 0 -193.5 75t-62.5 173v645h-106z" />
<glyph unicode="u" horiz-adv-x="811" d="M88 246v813h213v-733q0 -57 26.5 -91t78.5 -34q106 0 106 145v713h213v-1059h-213v102h-4q-76 -115 -201 -114q-90 0 -154.5 63.5t-64.5 194.5z" />
<glyph unicode="v" horiz-adv-x="735" d="M-2 1059h225l142 -676h6l141 676h225l-276 -1059h-187z" />
<glyph unicode="w" horiz-adv-x="1118" d="M2 1059h225l129 -658h4l121 658h166l113 -658h4l129 658h225l-252 -1059h-186l-119 629h-4l-117 -629h-188z" />
<glyph unicode="x" horiz-adv-x="692" d="M-23 0l261 541l-248 518h225l131 -301l133 301h226l-254 -518l266 -541h-225l-146 324l-143 -324h-226z" />
<glyph unicode="y" horiz-adv-x="735" d="M-2 1059h225l148 -660h4l143 660h219l-305 -1243q-57 -244 -295 -244h-57v201h47q68 0 96.5 48t65.5 226z" />
<glyph unicode="z" horiz-adv-x="657" d="M35 0v170l346 700h-318v189h560v-168l-344 -690h344v-201h-588z" />
<glyph unicode="{" horiz-adv-x="462" d="M6 580v125q59 0 96 65.5t37 167.5v317q0 106 59.5 169t145.5 63h113v-125h-37q-92 0 -92 -137v-316q0 -127 -45 -192.5t-99 -75.5v-4q53 -10 98.5 -74.5t45.5 -193.5v-312q0 -141 92 -141h37v-125h-113q-86 0 -145.5 62.5t-59.5 169.5v315q0 104 -37 173t-96 69z" />
<glyph unicode="|" horiz-adv-x="462" d="M147 -522v2089h168v-2089h-168z" />
<glyph unicode="}" horiz-adv-x="462" d="M6 -84h37q92 0 92 141v312q0 129 45 193.5t101 74.5v4q-55 10 -100.5 75.5t-45.5 192.5v316q0 137 -92 137h-37v125h113q86 0 145.5 -62.5t59.5 -169.5v-317q0 -102 37.5 -167.5t95.5 -65.5v-125q-57 0 -95 -69t-38 -173v-315q0 -106 -59.5 -169t-145.5 -63h-113v125z " />
<glyph unicode="~" horiz-adv-x="1253" d="M143 502q96 182 263 182q86 0 231 -70l45 -19q31 -13 48.5 -21.5t42 -17.5t43 -13t34.5 -4q41 0 77 25.5t56.5 51t50.5 74.5l76 -137q-96 -180 -262 -180q-86 0 -232 67q-14 6 -44.5 20.5t-48 21.5l-42 16.5t-43 13.5t-35.5 4q-41 0 -76.5 -25.5t-55 -50t-52.5 -71.5z " />
<glyph unicode="&#xa1;" horiz-adv-x="499" d="M117 -428l82 1120h104l82 -1120h-268zM143 846v213h213v-213h-213z" />
<glyph unicode="&#xa2;" horiz-adv-x="776" d="M72 348v361q0 141 39 215q72 131 231 147v158h86v-158q127 -10 203 -103.5t76 -234.5h-213q0 102 -66 125v-657q57 18 66 106h213q0 -139 -86 -229q-78 -82 -193 -90v-176h-86v176q-158 12 -231 145q-39 74 -39 215zM285 297q0 -76 57 -96v657q-25 -8 -41 -39 q-16 -29 -16 -74v-448z" />
<glyph unicode="&#xa3;" horiz-adv-x="776" d="M27 623v147h114q-78 150 -78 317q0 180 84 296t254 116q119 0 214.5 -87t95.5 -253v-94h-201v84q0 150 -115 149q-131 0 -131 -213q0 -139 66 -315h241v-147h-192q37 -104 37 -185q0 -111 -68 -227q14 -2 49 -8t67 -10.5t56 -4.5q84 0 137 66l144 -143 q-90 -123 -234 -123q-37 0 -171 19.5t-183 19.5q-92 0 -166 -33v180q59 35 135 41q55 84 56 182q0 102 -48 226h-163z" />
<glyph unicode="&#xa4;" horiz-adv-x="776" d="M8 446l88 89q-74 78 -73.5 208.5t71.5 208.5l-86 88l86 86l86 -88q82 72 209 72q129 0 211 -72l86 88l82 -86l-84 -86q70 -82 70 -211q0 -131 -70 -208l84 -86l-84 -87l-86 87q-78 -70 -209 -70t-209 72l-86 -89zM162 743.5q0 -94.5 66.5 -161t160.5 -66.5t160.5 66.5 t66.5 161t-66.5 161t-160.5 66.5t-160.5 -66.5t-66.5 -161z" />
<glyph unicode="&#xa5;" horiz-adv-x="776" d="M8 1487h213l166 -590h4l164 590h213l-246 -750h205v-137h-238v-102h238v-140h-238v-358h-200v358h-240v140h240v102h-240v137h205z" />
<glyph unicode="&#xa6;" horiz-adv-x="462" d="M147 -365v730h168v-730h-168zM147 680v729h168v-729h-168z" />
<glyph unicode="&#xa7;" d="M70 541q0 180 36.5 250.5t155.5 107.5q-98 47 -124.5 103.5t-26.5 175.5q0 158 81.5 239.5t204.5 81.5q113 0 198 -74.5t85 -210.5v-96h-178v88q0 51 -29 89t-76 38q-109 0 -108 -153q0 -76 15 -103.5t83 -70.5l203 -134q74 -47 94.5 -106t20.5 -225q0 -158 -31 -218.5 t-152 -117.5q102 -53 130 -108.5t28 -186.5q0 -162 -53 -238q-35 -53 -101.5 -82.5t-136.5 -29.5q-106 0 -178 51t-96.5 114.5t-24.5 133.5v86h178v-84q0 -57 32 -96t83 -39q61 0 90 39.5t29 123.5q0 78 -12.5 108t-55.5 56l-246 150q-78 47 -98 113.5t-20 224.5zM283 444 q0 -45 29.5 -77.5t74.5 -32.5q41 0 73 32.5t32 77.5v207q0 47 -32 79t-73 32q-45 0 -74.5 -32t-29.5 -79v-207z" />
<glyph unicode="&#xa8;" horiz-adv-x="387" d="M-70 1225v213h189v-213h-189zM270 1225v213h187v-213h-187z" />
<glyph unicode="&#xa9;" horiz-adv-x="1671" d="M80 743.5q0 313.5 221 534.5t534.5 221t534.5 -221t221 -534.5t-221 -534.5t-534.5 -221t-534.5 221t-221 534.5zM229 744q0 -255 178.5 -437t428 -182t428 182t178.5 437t-178.5 436.5t-428 181.5t-428 -181.5t-178.5 -436.5zM416 743q0 209 118.5 341.5t321.5 132.5 q147 0 252.5 -84t124.5 -232h-139q-16 74 -82 125t-154 51q-135 0 -214 -93t-79 -236q0 -135 84 -235.5t213 -100.5q88 0 152.5 54t79.5 134h139q-27 -147 -129.5 -236.5t-241.5 -89.5q-201 0 -323.5 134t-122.5 335z" />
<glyph unicode="&#xaa;" horiz-adv-x="499" d="M29 1020q0 115 50 168t175 53q10 0 68 -4v49q0 76 -69 76t-77 -64h-139q6 92 63 148q61 53 152.5 53t156 -53t64.5 -148v-442h-151v66h-5q-55 -74 -131 -74q-63 0 -110 38t-47 134zM180 1042q0 -61 66 -61q35 0 55.5 20.5t20.5 51.5v77q-29 4 -37 5q-105 -1 -105 -93z " />
<glyph unicode="&#xab;" horiz-adv-x="888" d="M20 580l424 421v-213l-211 -208l211 -209v-215zM408 580l423 421v-213l-210 -208l210 -209v-215z" />
<glyph unicode="&#xac;" horiz-adv-x="1253" d="M98 653v168h1057v-585h-168v417h-889z" />
<glyph unicode="&#xad;" horiz-adv-x="811" d="M92 473v213h629v-213h-629z" />
<glyph unicode="&#xae;" horiz-adv-x="1671" d="M80 743.5q0 313.5 221 534.5t534.5 221t534.5 -221t221 -534.5t-221 -534.5t-534.5 -221t-534.5 221t-221 534.5zM229 744q0 -255 178.5 -437t428 -182t428 182t178.5 437t-178.5 436.5t-428 181.5t-428 -181.5t-178.5 -436.5zM549 303v881h334q303 0 303 -248 q0 -219 -225 -246l253 -387h-167l-252 383h-107v-383h-139zM688 811h156q205 0 205 131q0 117 -160 117h-201v-248z" />
<glyph unicode="&#xaf;" horiz-adv-x="387" d="M-92 1268v125h573v-125h-573z" />
<glyph unicode="&#xb0;" horiz-adv-x="542" d="M37 1265.5q0 96.5 69.5 165t166 68.5t165 -68.5t68.5 -165t-68.5 -165t-165 -68.5t-166 68.5t-69.5 165zM143 1266.5q0 -54.5 37 -91t91.5 -36.5t91 36.5t36.5 91t-36.5 90.5t-91 36t-91.5 -36t-37 -90.5z" />
<glyph unicode="&#xb1;" horiz-adv-x="1253" d="M98 0v168h1057v-168h-1057zM98 553v168h445v336h168v-336h444v-168h-444v-336h-168v336h-445z" />
<glyph unicode="&#xb2;" horiz-adv-x="503" d="M23 600v113l268 442q25 43 24 82v47q0 31 -19.5 48.5t-45 17.5t-43 -17.5t-17.5 -48.5v-63h-167v73q0 88 65.5 146.5t163.5 58.5q96 0 163.5 -54t67.5 -134v-70q0 -78 -49 -158l-198 -333h247v-150h-460z" />
<glyph unicode="&#xb3;" horiz-adv-x="503" d="M23 788v70h167v-47q0 -33 16.5 -51.5t45.5 -18.5q27 0 45 18.5t18 45.5v108q0 45 -20.5 60.5t-85.5 15.5v139q63 0 83.5 13.5t22.5 56.5v88q0 29 -17 46.5t-46 17.5t-45.5 -19.5t-16.5 -44.5v-53h-167v65q0 88 65.5 144.5t167.5 56.5q109 0 168 -62.5t59 -146.5v-84 q0 -53 -17 -86t-69 -59q86 -49 86 -152v-106q0 -86 -59 -148.5t-172 -62.5q-96 0 -162.5 47t-66.5 149z" />
<glyph unicode="&#xb4;" horiz-adv-x="387" d="M59 1198l187 295h227l-276 -295h-138z" />
<glyph unicode="&#xb5;" horiz-adv-x="811" d="M88 -428v1487h213v-733q0 -57 26.5 -91t78.5 -34q106 0 106 145v713h213v-1059h-213v102h-4q-25 -55 -68 -88q-35 -27 -69 -26q-45 0 -66 20h-4v-436h-213z" />
<glyph unicode="&#xb6;" horiz-adv-x="925" d="M16 1085q0 199 123 300.5t334 101.5h358v-1915h-149v1808h-152v-1808h-149v1126q-141 0 -253 114.5t-112 272.5z" />
<glyph unicode="&#xb7;" horiz-adv-x="387" d="M61 621.5q0 54.5 39 94.5t93.5 40t94.5 -40t40 -94.5t-40 -93.5t-94.5 -39t-93.5 39t-39 93.5z" />
<glyph unicode="&#xb8;" horiz-adv-x="387" d="M-31 -428l35 88q82 -33 135 -33q113 0 113 86q0 37 -27.5 58.5t-64.5 21.5q-45 0 -82 -14l-37 41l137 180h96l-96 -125q41 4 64 4q94 0 136 -48t42 -110q0 -94 -78 -141t-178 -47q-86 0 -195 39z" />
<glyph unicode="&#xb9;" horiz-adv-x="503" d="M57 1247v150l138 90h165v-887h-165v737z" />
<glyph unicode="&#xba;" horiz-adv-x="499" d="M37 1055v237q0 90 58.5 148.5t154.5 58.5t154.5 -58.5t58.5 -148.5v-237q0 -90 -58.5 -148.5t-154.5 -58.5t-154.5 58.5t-58.5 148.5zM188 1057q0 -72 62.5 -72t62.5 72v231q0 74 -62.5 74t-62.5 -74v-231z" />
<glyph unicode="&#xbb;" horiz-adv-x="888" d="M59 156v215l211 209l-211 208v213l424 -421zM444 156v215l211 209l-211 208v213l424 -421z" />
<glyph unicode="&#xbc;" horiz-adv-x="1159" d="M23 1247v150l139 90h166v-887h-166v737zM37 -35l913 1559h125l-911 -1559h-127zM608 129v129l205 635h166l-197 -625h125v240h166v-240h64v-139h-64v-129h-166v129h-299z" />
<glyph unicode="&#xbd;" horiz-adv-x="1159" d="M23 1247v150l139 90h166v-887h-166v737zM37 -35l913 1559h125l-911 -1559h-127zM672 0v113l272 442q25 45 25 82v49q0 29 -19.5 46.5t-44.5 17.5q-29 0 -47 -17.5t-18 -46.5v-65h-168v75q0 86 67.5 145.5t167.5 59.5q96 0 163 -54t67 -136v-70q0 -78 -50 -156l-196 -335 h246v-150h-465z" />
<glyph unicode="&#xbe;" horiz-adv-x="1159" d="M23 788v70h167v-47q0 -33 16.5 -51.5t45.5 -18.5q27 0 45 18.5t18 45.5v108q0 45 -20.5 60.5t-85.5 15.5v139q63 0 83.5 13.5t22.5 56.5v88q0 29 -17 46.5t-46 17.5t-45.5 -19.5t-16.5 -44.5v-53h-167v65q0 88 65.5 144.5t167.5 56.5q109 0 168 -62.5t59 -146.5v-84 q0 -53 -17 -86t-69 -59q86 -49 86 -152v-106q0 -86 -59 -148.5t-172 -62.5q-96 0 -162.5 47t-66.5 149zM78 -35l911 1559h127l-913 -1559h-125zM608 129v129l205 635h166l-197 -625h125v240h166v-240h64v-139h-64v-129h-166v129h-299z" />
<glyph unicode="&#xbf;" d="M68 -68q0 182 32 240l144 246q37 63 37 106v168h213v-194q0 -82 -54 -170l-133 -217q-27 -45 -26 -121v-111q0 -45 29.5 -75.5t74.5 -30.5q41 0 75 28.5t34 77.5v121h213v-123q0 -131 -94.5 -224t-227.5 -93q-158 0 -248 118q-41 55 -55 106.5t-14 147.5zM281 846v213 h213v-213h-213z" />
<glyph unicode="&#xc0;" horiz-adv-x="849" d="M4 0l332 1487h178l332 -1487h-213l-64 319h-288l-64 -319h-213zM147 1849h228l186 -295h-137zM317 520h213l-104 539h-4z" />
<glyph unicode="&#xc1;" horiz-adv-x="849" d="M4 0l332 1487h178l332 -1487h-213l-64 319h-288l-64 -319h-213zM291 1554l188 295h226l-277 -295h-137zM317 520h213l-104 539h-4z" />
<glyph unicode="&#xc2;" horiz-adv-x="849" d="M4 0l332 1487h178l332 -1487h-213l-64 319h-288l-64 -319h-213zM123 1554l205 295h196l205 -295h-164l-139 199l-139 -199h-164zM317 520h213l-104 539h-4z" />
<glyph unicode="&#xc3;" horiz-adv-x="849" d="M4 0l332 1487h178l332 -1487h-213l-64 319h-288l-64 -319h-213zM72 1573q45 231 211 231q35 0 156.5 -42t144.5 -42q41 0 64.5 27t25.5 68h106q-45 -231 -211 -232q-35 0 -155.5 42t-143.5 42q-43 0 -66.5 -26.5t-25.5 -67.5h-106zM317 520h213l-104 539h-4z" />
<glyph unicode="&#xc4;" horiz-adv-x="849" d="M4 0l332 1487h178l332 -1487h-213l-64 319h-288l-64 -319h-213zM164 1579v213h186v-213h-186zM317 520h213l-104 539h-4zM502 1579v213h188v-213h-188z" />
<glyph unicode="&#xc5;" horiz-adv-x="849" d="M4 0l332 1487h178l332 -1487h-213l-64 319h-288l-64 -319h-213zM213 1745q0 88 62.5 150.5t150.5 62.5t150.5 -63.5t62.5 -149.5q0 -88 -62.5 -150.5t-150.5 -62.5t-150.5 63.5t-62.5 149.5zM299 1744q0 -52 37 -90t91 -38t90 38t36 90t-36 90t-90 38t-91 -38t-37 -90z M317 520h213l-104 539h-4z" />
<glyph unicode="&#xc6;" horiz-adv-x="1275" d="M4 0l422 1487h813v-201h-422v-436h367v-201h-367v-436h422v-213h-635v319h-293l-82 -319h-225zM360 520h244v766h-51z" />
<glyph unicode="&#xc7;" horiz-adv-x="849" d="M88 338v819q0 150 97.5 246t248.5 96q150 0 246 -100.5t96 -253.5v-84h-213v72q0 63 -35.5 108t-95.5 45q-76 0 -103.5 -45t-27.5 -127v-762q0 -152 129 -151q53 0 93 35.5t40 113.5v74h213v-92q0 -123 -77.5 -220.5t-198.5 -119.5l-90 -117q41 4 65 4q92 0 134 -48 t42 -110q0 -94 -77.5 -141t-178.5 -47q-86 0 -194 39l35 88q82 -33 137 -33q113 0 112 86q0 37 -28.5 58.5t-65.5 21.5q-45 0 -82 -14l-35 41l127 168q-131 10 -222 94t-91 256z" />
<glyph unicode="&#xc8;" d="M100 0v1487h635v-201h-422v-436h369v-201h-369v-436h422v-213h-635zM129 1849h225l189 -295h-137z" />
<glyph unicode="&#xc9;" d="M100 0v1487h635v-201h-422v-436h369v-201h-369v-436h422v-213h-635zM272 1554l187 295h227l-276 -295h-138z" />
<glyph unicode="&#xca;" d="M100 0v1487h635v-201h-422v-436h369v-201h-369v-436h422v-213h-635zM104 1554l205 295h197l205 -295h-164l-139 199l-140 -199h-164z" />
<glyph unicode="&#xcb;" d="M100 0v1487h635v-201h-422v-436h369v-201h-369v-436h422v-213h-635zM143 1579v213h189v-213h-189zM483 1579v213h187v-213h-187z" />
<glyph unicode="&#xcc;" horiz-adv-x="425" d="M-66 1849h228l186 -295h-137zM106 0v1487h213v-1487h-213z" />
<glyph unicode="&#xcd;" horiz-adv-x="425" d="M78 1554l188 295h226l-277 -295h-137zM106 0v1487h213v-1487h-213z" />
<glyph unicode="&#xce;" horiz-adv-x="425" d="M-90 1554l205 295h196l205 -295h-164l-139 199l-139 -199h-164zM106 0v1487h213v-1487h-213z" />
<glyph unicode="&#xcf;" horiz-adv-x="425" d="M-49 1579v213h186v-213h-186zM106 0v1487h213v-1487h-213zM289 1579v213h188v-213h-188z" />
<glyph unicode="&#xd0;" horiz-adv-x="888" d="M0 731v137h100v619h316q180 0 277.5 -101.5t97.5 -281.5v-696q0 -205 -101.5 -306.5t-292.5 -101.5h-297v731h-100zM313 201h99q88 0 127 45t39 141v717q0 90 -38 136t-128 46h-99v-418h146v-137h-146v-530z" />
<glyph unicode="&#xd1;" horiz-adv-x="925" d="M92 0v1487h205l321 -895h5v895h213v-1487h-201l-326 895h-4v-895h-213zM109 1573q45 231 210 231q35 0 158 -42t144 -42q41 0 65.5 27t26.5 68h106q-47 -231 -211 -232q-37 0 -157.5 42t-143.5 42q-41 0 -65.5 -26.5t-26.5 -67.5h-106z" />
<glyph unicode="&#xd2;" horiz-adv-x="888" d="M88 350v787q0 172 107.5 267t250 95t250 -95t107.5 -267v-787q0 -170 -107.5 -266t-250 -96t-250 96t-107.5 266zM168 1849h225l189 -295h-140zM301 350q0 -72 41 -110.5t103.5 -38.5t103.5 39t41 110v787q0 74 -41 111.5t-103.5 37.5t-103.5 -38t-41 -111v-787z" />
<glyph unicode="&#xd3;" horiz-adv-x="888" d="M88 350v787q0 172 107.5 267t250 95t250 -95t107.5 -267v-787q0 -170 -107.5 -266t-250 -96t-250 96t-107.5 266zM301 350q0 -72 41 -110.5t103.5 -38.5t103.5 39t41 110v787q0 74 -41 111.5t-103.5 37.5t-103.5 -38t-41 -111v-787zM309 1554l189 295h225l-277 -295h-137 z" />
<glyph unicode="&#xd4;" horiz-adv-x="888" d="M88 350v787q0 172 107.5 267t250 95t250 -95t107.5 -267v-787q0 -170 -107.5 -266t-250 -96t-250 96t-107.5 266zM141 1554l205 295h197l205 -295h-162l-142 199l-139 -199h-164zM301 350q0 -72 41 -110.5t103.5 -38.5t103.5 39t41 110v787q0 74 -41 111.5t-103.5 37.5 t-103.5 -38t-41 -111v-787z" />
<glyph unicode="&#xd5;" horiz-adv-x="888" d="M88 350v787q0 172 107.5 267t250 95t250 -95t107.5 -267v-787q0 -170 -107.5 -266t-250 -96t-250 96t-107.5 266zM90 1573q45 231 211 231q35 0 158 -42t143 -42q41 0 65.5 27t26.5 68h107q-47 -231 -211 -232q-35 0 -158 42t-143 42q-43 0 -66.5 -26.5t-25.5 -67.5h-107 zM301 350q0 -72 41 -110.5t103.5 -38.5t103.5 39t41 110v787q0 74 -41 111.5t-103.5 37.5t-103.5 -38t-41 -111v-787z" />
<glyph unicode="&#xd6;" horiz-adv-x="888" d="M88 350v787q0 172 107.5 267t250 95t250 -95t107.5 -267v-787q0 -170 -107.5 -266t-250 -96t-250 96t-107.5 266zM182 1579v213h189v-213h-189zM301 350q0 -72 41 -110.5t103.5 -38.5t103.5 39t41 110v787q0 74 -41 111.5t-103.5 37.5t-103.5 -38t-41 -111v-787z M520 1579v213h189v-213h-189z" />
<glyph unicode="&#xd7;" horiz-adv-x="1253" d="M139 162l371 366l-371 371l119 117l369 -369l370 369l117 -117l-369 -371l369 -366l-117 -121l-370 371l-369 -371z" />
<glyph unicode="&#xd8;" horiz-adv-x="888" d="M20 -33l105 215q-37 72 -37 168v787q0 172 107.5 267t248.5 95q156 0 263 -108l84 176l77 -45l-104 -215q39 -72 39 -170v-787q0 -170 -107.5 -266t-251.5 -96q-160 0 -260 108l-84 -176zM301 340q2 -66 43 -102.5t100 -36.5q63 0 104.5 39t41.5 110v588h-4zM301 547h4 l285 600q-4 70 -45 104.5t-101 34.5q-61 0 -102 -38t-41 -111v-590z" />
<glyph unicode="&#xd9;" horiz-adv-x="888" d="M100 334v1153h213v-1133q0 -74 37 -113.5t95.5 -39.5t95.5 40t37 113v1133h213v-1153q0 -145 -100.5 -245.5t-245 -100.5t-245 100.5t-100.5 245.5zM168 1849h225l189 -295h-140z" />
<glyph unicode="&#xda;" horiz-adv-x="888" d="M100 334v1153h213v-1133q0 -74 37 -113.5t95.5 -39.5t95.5 40t37 113v1133h213v-1153q0 -145 -100.5 -245.5t-245 -100.5t-245 100.5t-100.5 245.5zM309 1554l189 295h225l-277 -295h-137z" />
<glyph unicode="&#xdb;" horiz-adv-x="888" d="M100 334v1153h213v-1133q0 -74 37 -113.5t95.5 -39.5t95.5 40t37 113v1133h213v-1153q0 -145 -100.5 -245.5t-245 -100.5t-245 100.5t-100.5 245.5zM141 1554l205 295h197l205 -295h-162l-142 199l-139 -199h-164z" />
<glyph unicode="&#xdc;" horiz-adv-x="888" d="M100 334v1153h213v-1133q0 -74 37 -113.5t95.5 -39.5t95.5 40t37 113v1133h213v-1153q0 -145 -100.5 -245.5t-245 -100.5t-245 100.5t-100.5 245.5zM182 1579v213h189v-213h-189zM520 1579v213h189v-213h-189z" />
<glyph unicode="&#xdd;" horiz-adv-x="808" d="M6 1487h225l172 -590h5l172 590h225l-293 -858v-629h-213v629zM270 1554l187 295h227l-276 -295h-138z" />
<glyph unicode="&#xde;" horiz-adv-x="849" d="M100 0v1487h213v-258h107q178 0 276 -105q53 -57 75 -135t22 -215q0 -201 -62 -297q-94 -156 -309 -155h-109v-322h-213zM313 522h103q49 0 84 13.5t52 32t27.5 55t11.5 65.5t1 84t-1 82t-10.5 67t-25.5 59t-49 33.5t-82 14.5h-111v-506z" />
<glyph unicode="&#xdf;" horiz-adv-x="811" d="M88 0v1153q0 145 80 245.5t235 100.5q322 0 322 -379q0 -111 -22.5 -161t-100.5 -99q123 -68 123 -213v-366q0 -176 -82 -234.5t-223 -58.5v200q47 0 69.5 21.5t22.5 85.5v397q0 68 -92 68v188q51 0 71.5 16.5t20.5 65.5v166q0 102 -100 102q-61 0 -86 -39.5t-25 -142.5 v-1116h-213z" />
<glyph unicode="&#xe0;" d="M53 270q0 188 72 273.5t264 85.5q16 0 50 -3t53 -3v110q0 125 -107 125q-45 0 -79 -27.5t-42 -78.5h-207q10 145 95 229q90 90 233 90q139 0 229.5 -86t90.5 -248v-737h-213v109h-5q-49 -66 -92 -93.5t-112 -27.5q-94 0 -162 62t-68 220zM109 1493h225l188 -295h-137z M266 311q0 -63 29 -99t82 -36t84 35t31 100v144q-37 6 -60 6q-166 0 -166 -150z" />
<glyph unicode="&#xe1;" d="M53 270q0 188 72 273.5t264 85.5q16 0 50 -3t53 -3v110q0 125 -107 125q-45 0 -79 -27.5t-42 -78.5h-207q10 145 95 229q90 90 233 90q139 0 229.5 -86t90.5 -248v-737h-213v109h-5q-49 -66 -92 -93.5t-112 -27.5q-94 0 -162 62t-68 220zM250 1198l188 295h226l-275 -295 h-139zM266 311q0 -63 29 -99t82 -36t84 35t31 100v144q-37 6 -60 6q-166 0 -166 -150z" />
<glyph unicode="&#xe2;" d="M53 270q0 188 72 273.5t264 85.5q16 0 50 -3t53 -3v110q0 125 -107 125q-45 0 -79 -27.5t-42 -78.5h-207q10 145 95 229q90 90 233 90q139 0 229.5 -86t90.5 -248v-737h-213v109h-5q-49 -66 -92 -93.5t-112 -27.5q-94 0 -162 62t-68 220zM84 1198l205 295h196l205 -295 h-164l-139 199l-141 -199h-162zM266 311q0 -63 29 -99t82 -36t84 35t31 100v144q-37 6 -60 6q-166 0 -166 -150z" />
<glyph unicode="&#xe3;" d="M31 1219q47 231 211 231q37 0 158.5 -42t142.5 -42q43 0 66.5 26.5t25.5 67.5h106q-45 -231 -211 -231q-33 0 -156.5 42t-144.5 42q-41 0 -65.5 -26.5t-26.5 -67.5h-106zM53 270q0 188 72 273.5t264 85.5q16 0 50 -3t53 -3v110q0 125 -107 125q-45 0 -79 -27.5t-42 -78.5 h-207q10 145 95 229q90 90 233 90q139 0 229.5 -86t90.5 -248v-737h-213v109h-5q-49 -66 -92 -93.5t-112 -27.5q-94 0 -162 62t-68 220zM266 311q0 -63 29 -99t82 -36t84 35t31 100v144q-37 6 -60 6q-166 0 -166 -150z" />
<glyph unicode="&#xe4;" d="M53 270q0 188 72 273.5t264 85.5q16 0 50 -3t53 -3v110q0 125 -107 125q-45 0 -79 -27.5t-42 -78.5h-207q10 145 95 229q90 90 233 90q139 0 229.5 -86t90.5 -248v-737h-213v109h-5q-49 -66 -92 -93.5t-112 -27.5q-94 0 -162 62t-68 220zM123 1225v213h188v-213h-188z M266 311q0 -63 29 -99t82 -36t84 35t31 100v144q-37 6 -60 6q-166 0 -166 -150zM461 1225v213h188v-213h-188z" />
<glyph unicode="&#xe5;" d="M53 270q0 188 72 273.5t264 85.5q16 0 50 -3t53 -3v110q0 125 -107 125q-45 0 -79 -27.5t-42 -78.5h-207q10 145 95 229q90 90 233 90q139 0 229.5 -86t90.5 -248v-737h-213v109h-5q-49 -66 -92 -93.5t-112 -27.5q-94 0 -162 62t-68 220zM174 1378q0 88 62.5 150.5 t150.5 62.5t150.5 -63.5t62.5 -149.5q0 -88 -62.5 -150.5t-150.5 -62.5t-150.5 63.5t-62.5 149.5zM258 1379.5q0 -54.5 38 -91.5t90 -37t90 37t38 91.5t-38 90t-90 35.5t-90 -35.5t-38 -90zM266 311q0 -63 29 -99t82 -36t84 35t31 100v144q-37 6 -60 6q-166 0 -166 -150z " />
<glyph unicode="&#xe6;" horiz-adv-x="1193" d="M53 270q0 188 72 273.5t264 85.5q16 0 50 -3t53 -3v110q0 125 -107 125q-45 0 -79 -27.5t-42 -78.5h-207q10 145 97.5 232t230.5 87q123 0 211 -74q86 74 213 74q143 0 230 -94t87 -236v-292h-421v-144q0 -51 27.5 -77.5t76.5 -26.5q94 0 104 106h213q0 -137 -89 -227 t-228 -92q-98 -2 -172 41t-107 108q-76 -150 -247 -149q-94 0 -162 62t-68 220zM266 311q0 -63 29 -99t82 -36t84 35t31 100v144q-37 6 -60 6q-166 0 -166 -150zM705 616h208v121q0 121 -104 121t-104 -121v-121z" />
<glyph unicode="&#xe7;" d="M100 354v351q0 141 39 215q84 152 279 151q143 0 230 -94t87 -244h-213q0 125 -104.5 125t-104.5 -121v-432q0 -51 29 -77.5t76 -26.5q94 0 104 106h213q0 -135 -86 -225q-76 -78 -190 -90l-88 -117q41 4 63 4q94 0 136 -48t42 -110q0 -94 -78.5 -141t-179.5 -47 q-84 0 -192 39l35 88q82 -33 135 -33q113 0 112 86q0 37 -27.5 58.5t-66.5 21.5q-43 0 -80 -14l-37 41l132 172q-156 23 -226 147q-39 74 -39 215z" />
<glyph unicode="&#xe8;" d="M70 354v351q0 141 39 215q84 152 278 151q143 0 230.5 -94t87.5 -236v-292h-422v-144q0 -51 27.5 -77.5t76.5 -26.5q94 0 105 106h213q0 -135 -87 -225q-90 -94 -231 -94q-195 0 -278 151q-39 74 -39 215zM109 1493h225l188 -295h-137zM283 616h209v121q0 121 -104.5 121 t-104.5 -121v-121z" />
<glyph unicode="&#xe9;" d="M70 354v351q0 141 39 215q84 152 278 151q143 0 230.5 -94t87.5 -236v-292h-422v-144q0 -51 27.5 -77.5t76.5 -26.5q94 0 105 106h213q0 -135 -87 -225q-90 -94 -231 -94q-195 0 -278 151q-39 74 -39 215zM250 1198l188 295h226l-275 -295h-139zM283 616h209v121 q0 121 -104.5 121t-104.5 -121v-121z" />
<glyph unicode="&#xea;" d="M70 354v351q0 141 39 215q84 152 278 151q143 0 230.5 -94t87.5 -236v-292h-422v-144q0 -51 27.5 -77.5t76.5 -26.5q94 0 105 106h213q0 -135 -87 -225q-90 -94 -231 -94q-195 0 -278 151q-39 74 -39 215zM84 1198l205 295h196l205 -295h-164l-139 199l-141 -199h-162z M283 616h209v121q0 121 -104.5 121t-104.5 -121v-121z" />
<glyph unicode="&#xeb;" d="M70 354v351q0 141 39 215q84 152 278 151q143 0 230.5 -94t87.5 -236v-292h-422v-144q0 -51 27.5 -77.5t76.5 -26.5q94 0 105 106h213q0 -135 -87 -225q-90 -94 -231 -94q-195 0 -278 151q-39 74 -39 215zM123 1225v213h188v-213h-188zM283 616h209v121q0 121 -104.5 121 t-104.5 -121v-121zM461 1225v213h188v-213h-188z" />
<glyph unicode="&#xec;" horiz-adv-x="387" d="M-84 1493h225l189 -295h-137zM88 0v1059h213v-1059h-213z" />
<glyph unicode="&#xed;" horiz-adv-x="387" d="M59 1198l187 295h227l-276 -295h-138zM88 0v1059h213v-1059h-213z" />
<glyph unicode="&#xee;" horiz-adv-x="387" d="M-109 1198l205 295h197l205 -295h-164l-139 199l-140 -199h-164zM88 0v1059h213v-1059h-213z" />
<glyph unicode="&#xef;" horiz-adv-x="387" d="M-70 1225v213h189v-213h-189zM88 0v1059h213v-1059h-213zM270 1225v213h187v-213h-187z" />
<glyph unicode="&#xf0;" d="M70 354v351q0 141 39 215q84 152 278 151q61 0 100 -47l5 4q-39 154 -99 232l-155 -74l-58 84l144 67q-59 49 -160 90l172 93q96 -35 168 -99l141 66l60 -84l-134 -60q133 -174 134 -491v-498q0 -141 -41 -215q-82 -152 -276.5 -151.5t-278.5 151.5q-39 74 -39 215z M283 322q0 -121 104.5 -121t104.5 121v415q0 121 -104.5 121t-104.5 -121v-415z" />
<glyph unicode="&#xf1;" horiz-adv-x="811" d="M53 1219q45 231 211 231q35 0 157 -42t142 -42q43 0 66.5 26.5t25.5 67.5h107q-45 -231 -211 -231q-33 0 -156 42t-145 42q-41 0 -64.5 -26.5t-25.5 -67.5h-107zM88 0v1059h213v-103h4q76 115 201 115q90 0 154.5 -63.5t64.5 -194.5v-813h-213v733q0 59 -27.5 92 t-76.5 33q-106 0 -107 -145v-713h-213z" />
<glyph unicode="&#xf2;" d="M70 354v351q0 141 39 215q84 152 278.5 151.5t276.5 -151.5q41 -74 41 -215v-351q0 -141 -41 -215q-82 -152 -276.5 -151.5t-278.5 151.5q-39 74 -39 215zM109 1493h225l188 -295h-137zM283 322q0 -121 104.5 -121t104.5 121v415q0 121 -104.5 121t-104.5 -121v-415z" />
<glyph unicode="&#xf3;" d="M70 354v351q0 141 39 215q84 152 278.5 151.5t276.5 -151.5q41 -74 41 -215v-351q0 -141 -41 -215q-82 -152 -276.5 -151.5t-278.5 151.5q-39 74 -39 215zM250 1198l188 295h226l-275 -295h-139zM283 322q0 -121 104.5 -121t104.5 121v415q0 121 -104.5 121t-104.5 -121 v-415z" />
<glyph unicode="&#xf4;" d="M70 354v351q0 141 39 215q84 152 278.5 151.5t276.5 -151.5q41 -74 41 -215v-351q0 -141 -41 -215q-82 -152 -276.5 -151.5t-278.5 151.5q-39 74 -39 215zM84 1198l205 295h196l205 -295h-164l-139 199l-141 -199h-162zM283 322q0 -121 104.5 -121t104.5 121v415 q0 121 -104.5 121t-104.5 -121v-415z" />
<glyph unicode="&#xf5;" d="M31 1219q47 231 211 231q37 0 158.5 -42t142.5 -42q43 0 66.5 26.5t25.5 67.5h106q-45 -231 -211 -231q-33 0 -156.5 42t-144.5 42q-41 0 -65.5 -26.5t-26.5 -67.5h-106zM70 354v351q0 141 39 215q84 152 278.5 151.5t276.5 -151.5q41 -74 41 -215v-351q0 -141 -41 -215 q-82 -152 -276.5 -151.5t-278.5 151.5q-39 74 -39 215zM283 322q0 -121 104.5 -121t104.5 121v415q0 121 -104.5 121t-104.5 -121v-415z" />
<glyph unicode="&#xf6;" d="M70 354v351q0 141 39 215q84 152 278.5 151.5t276.5 -151.5q41 -74 41 -215v-351q0 -141 -41 -215q-82 -152 -276.5 -151.5t-278.5 151.5q-39 74 -39 215zM123 1225v213h188v-213h-188zM283 322q0 -121 104.5 -121t104.5 121v415q0 121 -104.5 121t-104.5 -121v-415z M461 1225v213h188v-213h-188z" />
<glyph unicode="&#xf7;" horiz-adv-x="1253" d="M98 444v168h1057v-168h-1057zM494 95.5q0 54.5 38.5 94t94 39.5t94.5 -39.5t39 -94t-39 -93.5t-94.5 -39t-94 39t-38.5 93.5zM494 961.5q0 54.5 38.5 93.5t94 39t94.5 -39t39 -93.5t-39 -94.5t-94.5 -40t-94 40t-38.5 94.5z" />
<glyph unicode="&#xf8;" d="M8 -25l103 172q-41 84 -41 183v399q0 150 86 246t231 96q137 0 221 -88l86 145l70 -45l-102 -172q43 -84 43 -182v-399q0 -150 -87.5 -246t-230.5 -96q-139 0 -221 88l-86 -146zM283 436h4l198 340q-12 82 -98 82q-104 0 -104 -121v-301zM289 283q12 -82 98 -82 q104 0 105 121v301h-5z" />
<glyph unicode="&#xf9;" horiz-adv-x="811" d="M88 246v813h213v-733q0 -57 26.5 -91t78.5 -34q106 0 106 145v713h213v-1059h-213v102h-4q-76 -115 -201 -114q-90 0 -154.5 63.5t-64.5 194.5zM129 1493h225l189 -295h-137z" />
<glyph unicode="&#xfa;" horiz-adv-x="811" d="M88 246v813h213v-733q0 -57 26.5 -91t78.5 -34q106 0 106 145v713h213v-1059h-213v102h-4q-76 -115 -201 -114q-90 0 -154.5 63.5t-64.5 194.5zM272 1198l187 295h227l-276 -295h-138z" />
<glyph unicode="&#xfb;" horiz-adv-x="811" d="M88 246v813h213v-733q0 -57 26.5 -91t78.5 -34q106 0 106 145v713h213v-1059h-213v102h-4q-76 -115 -201 -114q-90 0 -154.5 63.5t-64.5 194.5zM104 1198l205 295h197l205 -295h-164l-139 199l-140 -199h-164z" />
<glyph unicode="&#xfc;" horiz-adv-x="811" d="M88 246v813h213v-733q0 -57 26.5 -91t78.5 -34q106 0 106 145v713h213v-1059h-213v102h-4q-76 -115 -201 -114q-90 0 -154.5 63.5t-64.5 194.5zM143 1225v213h189v-213h-189zM483 1225v213h187v-213h-187z" />
<glyph unicode="&#xfd;" horiz-adv-x="735" d="M-2 1059h225l148 -660h4l143 660h219l-305 -1243q-57 -244 -295 -244h-57v201h47q68 0 96.5 48t65.5 226zM231 1198l189 295h225l-274 -295h-140z" />
<glyph unicode="&#xfe;" horiz-adv-x="811" d="M88 -428v1915h213v-524q35 41 54.5 58t58.5 33.5t90 16.5q131 0 186 -100q35 -63 35 -228v-403q0 -203 -33 -256q-61 -96 -190 -96q-123 0 -197 108h-4v-524h-213zM301 315q0 -49 29.5 -81.5t77.5 -32.5q104 0 104 125v389q0 143 -104 143q-49 0 -78 -36t-29 -95v-412z " />
<glyph unicode="&#xff;" horiz-adv-x="735" d="M-2 1059h225l148 -660h4l143 660h219l-305 -1243q-57 -244 -295 -244h-57v201h47q68 0 96.5 48t65.5 226zM104 1225v213h189v-213h-189zM442 1225v213h189v-213h-189z" />
<glyph unicode="&#x152;" horiz-adv-x="1273" d="M100 340v807q0 147 87 249.5t233 102.5q121 0 178 -86h4v74h635v-201h-422v-436h367v-201h-367v-436h422v-213h-635v72h-4q-29 -37 -77 -60.5t-101 -23.5q-145 0 -232.5 102.5t-87.5 249.5zM313 330q0 -63 40 -108.5t104.5 -45.5t104.5 45t40 109v827q0 66 -40 111 t-104.5 45t-104.5 -45t-40 -111v-827z" />
<glyph unicode="&#x153;" horiz-adv-x="1193" d="M70 354v351q0 141 39 215q84 152 278 151q125 0 211 -70q78 70 211 70q143 0 230 -94t87 -236v-292h-421v-144q0 -51 27.5 -77.5t76.5 -26.5q94 0 104 106h213q0 -135 -86 -225q-90 -94 -231 -94q-150 0 -219 73q-78 -74 -203 -73q-195 0 -278 151q-39 74 -39 215z M283 322q0 -121 104.5 -121t104.5 121v415q0 121 -104.5 121t-104.5 -121v-415zM705 616h208v121q0 121 -104 121t-104 -121v-121z" />
<glyph unicode="&#x178;" horiz-adv-x="808" d="M6 1487h225l172 -590h5l172 590h225l-293 -858v-629h-213v629zM141 1579v213h189v-213h-189zM481 1579v213h187v-213h-187z" />
<glyph unicode="&#x2c6;" horiz-adv-x="387" d="M-109 1198l205 295h197l205 -295h-164l-139 199l-140 -199h-164z" />
<glyph unicode="&#x2dc;" horiz-adv-x="387" d="M-162 1219q47 231 211 231q37 0 159 -42t142 -42q43 0 66.5 26.5t25.5 67.5h107q-45 -231 -211 -231q-33 0 -156 42t-145 42q-41 0 -65.5 -26.5t-26.5 -67.5h-107z" />
<glyph unicode="&#x2013;" horiz-adv-x="1044" d="M0 479v201h1044v-201h-1044z" />
<glyph unicode="&#x2014;" horiz-adv-x="2088" d="M0 479v201h2089v-201h-2089z" />
<glyph unicode="&#x2018;" horiz-adv-x="387" d="M88 1120v213l213 154v-367h-213z" />
<glyph unicode="&#x2019;" horiz-adv-x="387" d="M88 1120v367h213v-213z" />
<glyph unicode="&#x201a;" horiz-adv-x="387" d="M88 -154v367h213v-213z" />
<glyph unicode="&#x201c;" horiz-adv-x="579" d="M37 1120v213l213 154v-367h-213zM330 1120v213l213 154v-367h-213z" />
<glyph unicode="&#x201d;" horiz-adv-x="579" d="M37 1120v367h213v-213zM330 1120v367h213v-213z" />
<glyph unicode="&#x201e;" horiz-adv-x="579" d="M37 -154v367h213v-213zM330 -154v367h213v-213z" />
<glyph unicode="&#x2022;" horiz-adv-x="1044" d="M150 744.5q0 154.5 109.5 263t263 108.5t263 -108.5t109.5 -263t-109.5 -263t-263 -108.5t-263 108.5t-109.5 263z" />
<glyph unicode="&#x2026;" horiz-adv-x="2088" d="M242 0v213h213v-213h-213zM938 0v213h213v-213h-213zM1634 0v213h213v-213h-213z" />
<glyph unicode="&#x2039;" horiz-adv-x="501" d="M20 580l424 421v-213l-211 -208l211 -209v-215z" />
<glyph unicode="&#x203a;" horiz-adv-x="501" d="M59 156v215l211 209l-211 208v213l424 -421z" />
<glyph unicode="&#x20ac;" horiz-adv-x="776" d="M33 512l43 164h65q-2 20 -2 72q0 45 2 69h-108l43 162h78q41 518 362 518q133 0 197 -47v-199q-53 51 -160 52q-170 0 -191 -324h300l-41 -162h-269v-69v-72h234l-43 -164h-181q18 -330 191 -330q109 0 160 49v-202q-53 -39 -199 -39q-156 0 -244 124t-110 398h-127z" />
<glyph unicode="&#x2122;" horiz-adv-x="2066" d="M82 1350v137h680v-137h-264v-723h-152v723h-264zM866 627v860h240l244 -629l243 629h240v-860h-152v723h-4l-286 -723h-84l-285 723h-4v-723h-152z" />
<glyph unicode="&#xe000;" horiz-adv-x="1060" d="M0 1060h1060v-1060h-1060v1060z" />
<glyph unicode="&#xfb01;" horiz-adv-x="849" d="M10 893v166h105v145q0 143 79.5 213t194.5 70h98v-201h-96q-63 0 -63 -72v-155h159v-166h-159v-893h-213v893h-105zM549 0v1059h213v-1059h-213zM549 1274v213h213v-213h-213z" />
<glyph unicode="&#xfb02;" horiz-adv-x="849" d="M10 893v166h105v145q0 143 79.5 213t194.5 70h98v-201h-96q-63 0 -63 -72v-155h159v-166h-159v-893h-213v893h-105zM549 285v1202h213v-1188q0 -59 22.5 -81.5t81.5 -29.5v-200q-160 0 -238.5 61.5t-78.5 235.5z" />
<glyph unicode="&#xfb03;" horiz-adv-x="1314" d="M1016 0v1059h213v-1059h-213zM1016 1274v213h213v-213h-213zM473 893v166h105v145q0 143 79.5 213t194.5 70h98v-201h-96q-63 0 -63 -72v-155h159v-166h-159v-893h-213v893h-105zM10 893v166h105v145q0 143 79.5 213t194.5 70h98v-201h-96q-63 0 -63 -72v-155h159v-166 h-159v-893h-213v893h-105z" />
<glyph unicode="&#xfb04;" horiz-adv-x="1314" d="M1004 285v1202h213v-1188q0 -59 21.5 -81.5t82.5 -29.5v-200q-162 0 -239.5 61.5t-77.5 235.5zM473 893v166h105v145q0 143 79.5 213t194.5 70h98v-201h-96q-63 0 -63 -72v-155h159v-166h-159v-893h-213v893h-105zM10 893v166h105v145q0 143 79.5 213t194.5 70h98v-201 h-96q-63 0 -63 -72v-155h159v-166h-159v-893h-213v893h-105z" />
</font>
</defs>
</svg>
